<svg id="Layer_1" data-name="Layer 1" xmlns="http://www.w3.org/2000/svg" viewBox="0 0 52.2 40"><defs><style>.cls-1{fill:#7ec16f;}.cls-1,.cls-4{fill-rule:evenodd;}.cls-2{fill:#00aa6e;}.cls-3{fill:#0a75b3;}.cls-4{fill:#fece3d;}</style></defs><path class="cls-1" d="M32.23,12.17c0-.83-.09-1.65-.08-2.26.07-3-.53-4.82-2.7-5.15-.51-.08-.83-.61-2-.84s-3.67-.1-8.54,1.51l-2.54-.54C27.77,1,28.92,3.45,30.13,3.63c3.11.46,2.94,4.12,2.1,8.54" transform="translate(-0.9 -1)"/><path class="cls-1" d="M19.55,6.38c-2.95.38-2.73-1.08-4.45-2.25-1.21-.82-1.53-1.6-2.59-2.53-1.32-1.15-6.33-.51-8.16.8C1.23,4.63-.89,10.07,3,17.26c.81,1.49,3.79,5.06,5.21,9.19.75,2.18-.28,6.12.29,8C9.19,36.59,10.67,41.12,13,41c.62,0,1.71-2.14,2.1-5.11.2-1.52-.17-3-.09-5.1.05-1.31.49-1.94,1.07-2l-.1,0c-.94-.26-1.65,1.78-1.77,5.42-.13,4.05-.67,4.53-1.54,4.56-.58,0-1.86-2.32-2.47-4.4-.54-1.82-.47-5.64-1.17-7.76a52.76,52.76,0,0,0-4-8.7C1.41,10.94,2.61,4,6.11,3.25,8.31,2.81,11.82,2,13,3.1a26.21,26.21,0,0,0,3,2.3c.95.68.18,1.09,1.36,1.42a15.1,15.1,0,0,0,4.9.16Z" transform="translate(-0.9 -1)"/><path class="cls-2" d="M49.6,17.35H49V14.63h.62Zm-3-2.22v1.73h.3a.84.84,0,0,0,.63-.24.92.92,0,0,0,.22-.66.82.82,0,0,0-.22-.61.85.85,0,0,0-.63-.22ZM46,17.35V14.63h1c1,0,1.45.44,1.45,1.33a1.31,1.31,0,0,1-.4,1,1.41,1.41,0,0,1-1,.38Zm-.71,0h-.62l-1.12-1.71a1.08,1.08,0,0,1-.14-.23h0c0,.1,0,.25,0,.45v1.49h-.58V14.63h.66l1.08,1.66.14.22h0a2.62,2.62,0,0,1,0-.37V14.63h.58ZM41,15.11a.63.63,0,0,0-.51.24,1,1,0,0,0-.19.64,1,1,0,0,0,.19.65.63.63,0,0,0,.5.23.61.61,0,0,0,.5-.23.93.93,0,0,0,.19-.63,1,1,0,0,0-.18-.66A.59.59,0,0,0,41,15.11Zm0,2.29A1.3,1.3,0,0,1,40,17a1.38,1.38,0,0,1-.37-1A1.49,1.49,0,0,1,40,15a1.28,1.28,0,0,1,1-.4A1.27,1.27,0,0,1,42,15a1.42,1.42,0,0,1,.36,1,1.45,1.45,0,0,1-.38,1A1.28,1.28,0,0,1,41,17.4Zm-1.86,0H38.5V15.72c0-.17,0-.37,0-.58h0a1.82,1.82,0,0,1-.09.36l-.64,1.85h-.5l-.65-1.83s0-.18-.08-.38h0c0,.27,0,.5,0,.71v1.5H36V14.63h.9l.56,1.61a2.74,2.74,0,0,1,.09.39h0c0-.15.07-.28.1-.39l.56-1.61h.88Zm-3.82,0h-.62l-1.13-1.71a1.5,1.5,0,0,1-.13-.23h0c0,.1,0,.25,0,.45v1.49h-.58V14.63h.67l1.08,1.66.14.22h0a3.25,3.25,0,0,1,0-.37V14.63h.58ZM31.4,16.28l-.29-.92a1.37,1.37,0,0,1-.05-.25h0a1,1,0,0,1-.05.24l-.3.93Zm1,1.07h-.67l-.2-.6h-1l-.19.6h-.66l1-2.72h.73Zm-3.11,0h-.62V16.24H27.55v1.11h-.61V14.63h.61v1.09h1.13V14.63h.62Zm-4.71-2.22v1.73h.31a.81.81,0,0,0,.62-.24.93.93,0,0,0,.23-.66.82.82,0,0,0-.23-.61.85.85,0,0,0-.63-.22ZM24,17.35V14.63h1c1,0,1.46.44,1.46,1.33a1.35,1.35,0,0,1-.4,1,1.44,1.44,0,0,1-1.06.38Z" transform="translate(-0.9 -1)"/><rect class="cls-3" x="50.11" y="13.62" width="2.09" height="11.44"/><path class="cls-3" d="M46.63,19.1a5.9,5.9,0,0,0-1.38.17,4.52,4.52,0,0,0-1.2.4v1.57a4.14,4.14,0,0,1,2.31-.72q1.2,0,1.2,1.11l-1.84.25q-2.34.3-2.34,2.28a2,2,0,0,0,.57,1.5,2.1,2.1,0,0,0,1.55.56,2.2,2.2,0,0,0,2-1.15h0v1h2V22A2.56,2.56,0,0,0,46.63,19.1Zm.93,4.19a1.45,1.45,0,0,1-.37,1,1.25,1.25,0,0,1-1,.41,1,1,0,0,1-.67-.23.74.74,0,0,1-.25-.58q0-.8,1-.93l1.23-.16Z" transform="translate(-0.9 -1)"/><path class="cls-3" d="M41.36,19H39.27V20.6h-1.1v1.54h1.1v1.78a2,2,0,0,0,2.22,2.3,3.15,3.15,0,0,0,1.4-.25V24.42a1.38,1.38,0,0,1-.68.19c-.57,0-.85-.35-.85-1.06V22.14h1.53V20.6H41.36Z" transform="translate(-0.9 -1)"/><path class="cls-3" d="M35.06,19.1a2.39,2.39,0,0,0-2.18,1.24h0V19.26H30.76v6.79h2.09V22.18a1.59,1.59,0,0,1,.35-1.06,1.12,1.12,0,0,1,.9-.42c.75,0,1.12.53,1.12,1.58v3.77h2.09V21.89Q37.31,19.1,35.06,19.1Z" transform="translate(-0.9 -1)"/><path class="cls-3" d="M26.59,19.1a3.27,3.27,0,0,0-2.42,1,3.65,3.65,0,0,0-1,2.68,3.17,3.17,0,0,0,3.46,3.46,5.12,5.12,0,0,0,2.45-.51V24.2a3.7,3.7,0,0,1-2,.53c-1.17,0-1.79-.49-1.86-1.48H29.7v-.88A3.38,3.38,0,0,0,28.88,20,3,3,0,0,0,26.59,19.1ZM25.25,22a1.93,1.93,0,0,1,.45-1,1.14,1.14,0,0,1,.87-.41c.79,0,1.18.48,1.18,1.46Z" transform="translate(-0.9 -1)"/><path class="cls-3" d="M16,14.51H12.66V26.17h3.23a6.82,6.82,0,0,0,4.79-1.64,5.61,5.61,0,0,0,1.79-4.34Q22.47,14.52,16,14.51Zm3.12,8.64a4,4,0,0,1-2.9,1H14.84V16.51h1.48q3.87,0,3.87,3.74A3.86,3.86,0,0,1,19.15,23.15Z" transform="translate(-0.9 -1)"/><path class="cls-1" d="M29.74,4.55C25.32,6,26.22,7.45,23.57,9.08h0c-2.82,1.21-4.81,2.64-6.86-.23-1.55-2.16-4.84-2.47-7.22-2.71L10.63,6c6.81-.2,6.24,4,9,3.7C24.93,9.15,25,5.06,29.74,4.55" transform="translate(-0.9 -1)"/><path class="cls-3" d="M31.34,28.53l0,.38-.23-.08a.78.78,0,0,0-.21,0,.41.41,0,0,0-.27.07.27.27,0,0,0-.09.22.24.24,0,0,0,.07.18,1.17,1.17,0,0,0,.31.24l0,0c.35.23.52.47.52.73a.7.7,0,0,1-.22.54.84.84,0,0,1-.59.21,1.53,1.53,0,0,1-.3,0,1.14,1.14,0,0,1-.26-.09l0-.38a1.45,1.45,0,0,0,.26.11,1.07,1.07,0,0,0,.25,0,.41.41,0,0,0,.28-.08.29.29,0,0,0,.1-.23c0-.16-.13-.31-.38-.47l-.08-.05a1.38,1.38,0,0,1-.39-.33.61.61,0,0,1-.1-.36.63.63,0,0,1,.21-.5.83.83,0,0,1,.58-.19l.25,0a1.05,1.05,0,0,1,.24.06" transform="translate(-0.9 -1)"/><path class="cls-3" d="M32.77,28.37h.44v.42h-.44Zm0,.77h.42V31h-.42Z" transform="translate(-0.9 -1)"/><path class="cls-3" d="M36,29.71V31h-.43V29.8a.45.45,0,0,0-.06-.26.22.22,0,0,0-.19-.07.25.25,0,0,0-.22.11.58.58,0,0,0-.08.32h0V31H34.6V29.34c0-.07,0-.14,0-.2H35a.56.56,0,0,1,0,.07,1.72,1.72,0,0,1,0,.2.5.5,0,0,1,.2-.23.61.61,0,0,1,.3-.08.47.47,0,0,1,.39.16.65.65,0,0,1,.13.45" transform="translate(-0.9 -1)"/><path class="cls-3" d="M38.54,29.18l0,.35a.44.44,0,0,0-.16-.06.44.44,0,0,0-.5.13.67.67,0,0,0-.12.43.81.81,0,0,0,.12.48.41.41,0,0,0,.35.16l.17,0,.17-.07v.35l-.22.07-.24,0a.73.73,0,0,1-.59-.26,1,1,0,0,1-.22-.69,1.08,1.08,0,0,1,.22-.71.77.77,0,0,1,.63-.26l.19,0a.83.83,0,0,1,.21.06" transform="translate(-0.9 -1)"/><path class="cls-3" d="M40.73,29.91v0a.67.67,0,0,0-.08-.35.24.24,0,0,0-.22-.12.29.29,0,0,0-.24.12.87.87,0,0,0-.1.38Zm.4.27h-1a.63.63,0,0,0,.13.39.5.5,0,0,0,.35.13.59.59,0,0,0,.23,0,.62.62,0,0,0,.22-.1v.34a1.17,1.17,0,0,1-.24.09,1.24,1.24,0,0,1-.27,0,.83.83,0,0,1-.63-.25,1,1,0,0,1-.22-.7,1.09,1.09,0,0,1,.2-.71.7.7,0,0,1,.57-.26.59.59,0,0,1,.5.25,1.07,1.07,0,0,1,.19.67v.16Z" transform="translate(-0.9 -1)"/><polygon class="cls-3" points="43.58 27.49 43.92 27.49 43.92 29.98 43.51 29.98 43.51 28 43.19 28.33 42.98 28.02 43.58 27.49"/><path class="cls-3" d="M46.75,28.78a.26.26,0,0,0-.24.12.59.59,0,0,0-.08.35.64.64,0,0,0,.08.37.26.26,0,0,0,.23.12.26.26,0,0,0,.24-.12.58.58,0,0,0,.09-.35A.73.73,0,0,0,47,28.9a.29.29,0,0,0-.24-.12m-.64,2.16,0-.37a.49.49,0,0,0,.18.08l.2,0a.47.47,0,0,0,.41-.2,1.18,1.18,0,0,0,.15-.61.49.49,0,0,1-.19.16.6.6,0,0,1-.24,0,.57.57,0,0,1-.47-.22.83.83,0,0,1-.18-.55.92.92,0,0,1,.2-.62.71.71,0,0,1,1.11.06,1.6,1.6,0,0,1,.2.89,1.92,1.92,0,0,1-.23,1,.8.8,0,0,1-.7.35l-.24,0Z" transform="translate(-0.9 -1)"/><polygon class="cls-3" points="47.91 27.49 49.3 27.49 49.3 27.89 48.57 29.98 48.09 29.98 48.88 27.84 47.91 27.84 47.91 27.49"/><polygon class="cls-3" points="50.67 27.49 52.05 27.49 52.05 27.89 51.33 29.98 50.85 29.98 51.64 27.84 50.67 27.84 50.67 27.49"/><path class="cls-4" d="M26.88,32.56a3.58,3.58,0,0,1-5.05.61c.15-.12,3.14,1.1,4.24-.92a.46.46,0,0,1,.58-.19.37.37,0,0,1,.23.5" transform="translate(-0.9 -1)"/><path class="cls-4" d="M26.17,34.83a2.88,2.88,0,0,1-4.05.48c.12-.09,2.52.89,3.39-.73a.39.39,0,0,1,.47-.16.31.31,0,0,1,.19.41" transform="translate(-0.9 -1)"/><path class="cls-4" d="M25.44,36.9a2,2,0,0,1-2.88.34c.08-.06,1.79.63,2.41-.52a.27.27,0,0,1,.33-.11.22.22,0,0,1,.14.29" transform="translate(-0.9 -1)"/><path class="cls-4" d="M24.77,38.54a1.2,1.2,0,0,1-1.68.2c.05,0,1,.37,1.41-.3a.15.15,0,0,1,.19-.07.13.13,0,0,1,.08.17" transform="translate(-0.9 -1)"/><path class="cls-4" d="M27.71,29.88a4.51,4.51,0,0,1-6.35.76c.19-.15,3.95,1.4,5.33-1.15a.58.58,0,0,1,.73-.24.46.46,0,0,1,.29.63" transform="translate(-0.9 -1)"/><path class="cls-4" d="M24.33,39a4.43,4.43,0,0,1-.5,1.26A9.47,9.47,0,0,1,24,39a1.86,1.86,0,0,0,.34-.06m.38-1.36c-.11.4-.21.77-.31,1.1a.83.83,0,0,1-.38.14c.06-.34.12-.72.2-1.14A2.13,2.13,0,0,0,24.71,37.61Zm.44-1.76c-.11.44-.22.88-.32,1.3a1.33,1.33,0,0,1-.56.24c.08-.44.16-.92.25-1.41A3.36,3.36,0,0,0,25.15,35.85Zm.49-2.06c-.11.47-.22,1-.34,1.43a1.82,1.82,0,0,1-.7.3c.09-.51.18-1,.28-1.56A3.81,3.81,0,0,0,25.64,33.79Zm.54-2.34c-.11.47-.23,1-.35,1.53a2.39,2.39,0,0,1-.85.41c.11-.61.22-1.2.31-1.74A5.23,5.23,0,0,0,26.18,31.45Zm.53-2.36c-.06.25-.17.74-.32,1.39a2.89,2.89,0,0,1-1,.44c.19-1.05.33-1.83.38-2.07a.47.47,0,0,1,.57-.36A.48.48,0,0,1,26.71,29.09Z" transform="translate(-0.9 -1)"/></svg>